<svg xmlns="http://www.w3.org/2000/svg" version="1.1" xmlns:xlink="http://www.w3.org/1999/xlink" xmlns:svgjs="http://svgjs.dev/svgjs" viewBox="0 0 800 800"><defs><linearGradient x1="50%" y1="0%" x2="50%" y2="100%" id="ffflurry-grad" gradientTransform="rotate(270)"><stop stop-color="hsl(238, 82%, 13%)" stop-opacity="1" offset="0%"></stop><stop stop-color="hsl(1.4, 100%, 67%)" stop-opacity="1" offset="45%"></stop><stop stop-color="hsl(167, 52%, 78%)" stop-opacity="1" offset="100%"></stop></linearGradient></defs><rect width="100%" height="100%" fill="hsl(0, 0%, 0%)"></rect><g fill="hsl(0, 94%, 14%)"><rect width="120" height="3" x="12" y="209.5" rx="1.5" transform="rotate(45, 72, 211)" opacity="0.37"></rect><rect width="363" height="3" x="267.5" y="82.5" rx="1.5" transform="rotate(45, 449, 84)" opacity="0.32"></rect><rect width="458" height="3" x="300" y="173.5" rx="1.5" transform="rotate(45, 529, 175)" opacity="0.78"></rect><rect width="297" height="3" x="396.5" y="411.5" rx="1.5" transform="rotate(45, 545, 413)" opacity="0.55"></rect><rect width="524" height="3" x="467" y="272.5" rx="1.5" transform="rotate(45, 729, 274)" opacity="0.71"></rect><rect width="127" height="3" x="524.5" y="670.5" rx="1.5" transform="rotate(45, 588, 672)" opacity="0.18"></rect><rect width="191" height="3" x="664.5" y="585.5" rx="1.5" transform="rotate(45, 760, 587)" opacity="0.89"></rect><rect width="57" height="3" x="599.5" y="139.5" rx="1.5" transform="rotate(45, 628, 141)" opacity="0.29"></rect><rect width="275" height="3" x="57.5" y="642.5" rx="1.5" transform="rotate(45, 195, 644)" opacity="0.64"></rect><rect width="192" height="3" x="59" y="709.5" rx="1.5" transform="rotate(45, 155, 711)" opacity="0.68"></rect><rect width="246" height="3" x="199" y="168.5" rx="1.5" transform="rotate(45, 322, 170)" opacity="0.30"></rect><rect width="317" height="3" x="339.5" y="23.5" rx="1.5" transform="rotate(45, 498, 25)" opacity="0.99"></rect><rect width="189" height="3" x="-68.5" y="719.5" rx="1.5" transform="rotate(45, 26, 721)" opacity="0.33"></rect><rect width="336" height="3" x="460" y="369.5" rx="1.5" transform="rotate(45, 628, 371)" opacity="0.90"></rect><rect width="43" height="3" x="672.5" y="373.5" rx="1.5" transform="rotate(45, 694, 375)" opacity="0.92"></rect><rect width="437" height="3" x="-20.5" y="132.5" rx="1.5" transform="rotate(45, 198, 134)" opacity="0.23"></rect><rect width="434" height="3" x="134" y="494.5" rx="1.5" transform="rotate(45, 351, 496)" opacity="0.64"></rect><rect width="301" height="3" x="258.5" y="760.5" rx="1.5" transform="rotate(45, 409, 762)" opacity="0.68"></rect><rect width="113" height="3" x="12.5" y="744.5" rx="1.5" transform="rotate(45, 69, 746)" opacity="0.63"></rect><rect width="447" height="3" x="103.5" y="669.5" rx="1.5" transform="rotate(45, 327, 671)" opacity="0.96"></rect><rect width="304" height="3" x="414" y="588.5" rx="1.5" transform="rotate(45, 566, 590)" opacity="0.75"></rect><rect width="528" height="3" x="-75" y="371.5" rx="1.5" transform="rotate(45, 189, 373)" opacity="0.33"></rect><rect width="572" height="3" x="137" y="215.5" rx="1.5" transform="rotate(45, 423, 217)" opacity="0.30"></rect><rect width="387" height="3" x="449.5" y="221.5" rx="1.5" transform="rotate(45, 643, 223)" opacity="0.95"></rect><rect width="218" height="3" x="665" y="451.5" rx="1.5" transform="rotate(45, 774, 453)" opacity="0.82"></rect><rect width="618" height="3" x="74" y="306.5" rx="1.5" transform="rotate(45, 383, 308)" opacity="1.00"></rect><rect width="202" height="3" x="65" y="38.5" rx="1.5" transform="rotate(45, 166, 40)" opacity="0.92"></rect><rect width="70" height="3" x="51" y="123.5" rx="1.5" transform="rotate(45, 86, 125)" opacity="0.77"></rect><rect width="284" height="3" x="304" y="683.5" rx="1.5" transform="rotate(45, 446, 685)" opacity="0.85"></rect><rect width="434" height="3" x="304" y="510.5" rx="1.5" transform="rotate(45, 521, 512)" opacity="0.93"></rect><rect width="267" height="3" x="262.5" y="631.5" rx="1.5" transform="rotate(45, 396, 633)" opacity="0.85"></rect><rect width="188" height="3" x="119" y="768.5" rx="1.5" transform="rotate(45, 213, 770)" opacity="0.69"></rect><rect width="205" height="3" x="646.5" y="358.5" rx="1.5" transform="rotate(45, 749, 360)" opacity="0.75"></rect><rect width="549" height="3" x="-194.5" y="426.5" rx="1.5" transform="rotate(45, 80, 428)" opacity="0.64"></rect><rect width="382" height="3" x="-132" y="635.5" rx="1.5" transform="rotate(45, 59, 637)" opacity="0.96"></rect><rect width="117" height="3" x="275.5" y="729.5" rx="1.5" transform="rotate(45, 334, 731)" opacity="0.37"></rect><rect width="615" height="3" x="-217.5" y="298.5" rx="1.5" transform="rotate(45, 90, 300)" opacity="0.36"></rect><rect width="48" height="3" x="455" y="316.5" rx="1.5" transform="rotate(45, 479, 318)" opacity="0.23"></rect><rect width="89" height="3" x="308.5" y="577.5" rx="1.5" transform="rotate(45, 353, 579)" opacity="0.32"></rect><rect width="261" height="3" x="404.5" y="770.5" rx="1.5" transform="rotate(45, 535, 772)" opacity="0.73"></rect><rect width="636" height="3" x="262" y="298.5" rx="1.5" transform="rotate(45, 580, 300)" opacity="0.13"></rect><rect width="349" height="3" x="100.5" y="603.5" rx="1.5" transform="rotate(45, 275, 605)" opacity="0.77"></rect><rect width="84" height="3" x="109" y="485.5" rx="1.5" transform="rotate(45, 151, 487)" opacity="0.49"></rect><rect width="541" height="3" x="99.5" y="35.5" rx="1.5" transform="rotate(45, 370, 37)" opacity="0.67"></rect><rect width="174" height="3" x="191" y="445.5" rx="1.5" transform="rotate(45, 278, 447)" opacity="0.60"></rect><rect width="352" height="3" x="122" y="772.5" rx="1.5" transform="rotate(45, 298, 774)" opacity="0.94"></rect><rect width="216" height="3" x="402" y="241.5" rx="1.5" transform="rotate(45, 510, 243)" opacity="0.49"></rect><rect width="439" height="3" x="103.5" y="109.5" rx="1.5" transform="rotate(45, 323, 111)" opacity="0.19"></rect><rect width="465" height="3" x="421.5" y="601.5" rx="1.5" transform="rotate(45, 654, 603)" opacity="0.64"></rect><rect width="423" height="3" x="254.5" y="584.5" rx="1.5" transform="rotate(45, 466, 586)" opacity="0.29"></rect><rect width="589" height="3" x="-24.5" y="48.5" rx="1.5" transform="rotate(45, 270, 50)" opacity="0.97"></rect><rect width="48" height="3" x="762" y="354.5" rx="1.5" transform="rotate(45, 786, 356)" opacity="0.63"></rect><rect width="91" height="3" x="366.5" y="392.5" rx="1.5" transform="rotate(45, 412, 394)" opacity="0.71"></rect><rect width="561" height="3" x="326.5" y="493.5" rx="1.5" transform="rotate(45, 607, 495)" opacity="0.14"></rect><rect width="218" height="3" x="221" y="237.5" rx="1.5" transform="rotate(45, 330, 239)" opacity="0.46"></rect><rect width="300" height="3" x="475" y="48.5" rx="1.5" transform="rotate(45, 625, 50)" opacity="0.39"></rect><rect width="637" height="3" x="-36.5" y="327.5" rx="1.5" transform="rotate(45, 282, 329)" opacity="0.36"></rect><rect width="346" height="3" x="271" y="477.5" rx="1.5" transform="rotate(45, 444, 479)" opacity="0.93"></rect><rect width="333" height="3" x="582.5" y="160.5" rx="1.5" transform="rotate(45, 749, 162)" opacity="0.09"></rect><rect width="491" height="3" x="433.5" y="522.5" rx="1.5" transform="rotate(45, 679, 524)" opacity="0.73"></rect><rect width="176" height="3" x="565" y="748.5" rx="1.5" transform="rotate(45, 653, 750)" opacity="0.40"></rect><rect width="414" height="3" x="-179" y="370.5" rx="1.5" transform="rotate(45, 28, 372)" opacity="0.10"></rect><rect width="247" height="3" x="413.5" y="88.5" rx="1.5" transform="rotate(45, 537, 90)" opacity="0.70"></rect><rect width="427" height="3" x="6.5" y="227.5" rx="1.5" transform="rotate(45, 220, 229)" opacity="0.40"></rect><rect width="248" height="3" x="570" y="443.5" rx="1.5" transform="rotate(45, 694, 445)" opacity="0.13"></rect><rect width="98" height="3" x="708" y="740.5" rx="1.5" transform="rotate(45, 757, 742)" opacity="0.80"></rect><rect width="394" height="3" x="522" y="658.5" rx="1.5" transform="rotate(45, 719, 660)" opacity="0.30"></rect><rect width="229" height="3" x="2.5" y="773.5" rx="1.5" transform="rotate(45, 117, 775)" opacity="0.86"></rect><rect width="577" height="3" x="-60.5" y="536.5" rx="1.5" transform="rotate(45, 228, 538)" opacity="0.83"></rect><rect width="657" height="3" x="-279.5" y="533.5" rx="1.5" transform="rotate(45, 49, 535)" opacity="0.60"></rect><rect width="266" height="3" x="115" y="699.5" rx="1.5" transform="rotate(45, 248, 701)" opacity="0.70"></rect><rect width="497" height="3" x="488.5" y="49.5" rx="1.5" transform="rotate(45, 737, 51)" opacity="0.69"></rect><rect width="438" height="3" x="-75" y="589.5" rx="1.5" transform="rotate(45, 144, 591)" opacity="0.50"></rect><rect width="78" height="3" x="375" y="139.5" rx="1.5" transform="rotate(45, 414, 141)" opacity="0.08"></rect><rect width="227" height="3" x="636.5" y="507.5" rx="1.5" transform="rotate(45, 750, 509)" opacity="0.31"></rect><rect width="144" height="3" x="444" y="705.5" rx="1.5" transform="rotate(45, 516, 707)" opacity="0.13"></rect><rect width="320" height="3" x="-114" y="49.5" rx="1.5" transform="rotate(45, 46, 51)" opacity="0.27"></rect></g></svg>